<svg id="ba3e81ab-f8bf-4c8b-bf22-ff862c93b5f3" data-name="Layer 1" xmlns="http://www.w3.org/2000/svg" viewBox="0 0 29.94 28.6"><path d="M7.92,18.14v13.6h20.2V18.14L17.92,10Zm16.7,4.2h0a6.4,6.4,0,1,1-6.4-6.4A6.38,6.38,0,0,1,24.62,22.34Z" transform="translate(-3.03 -3.14)" fill="#87cf80"/><path d="M32.32,14.54,17.92,3.14,3.72,14.54a1.78,1.78,0,1,0,2.2,2.8l12-9.7,12.2,9.7a1.5,1.5,0,0,0,1.1.4,1.75,1.75,0,0,0,1.4-.7A1.85,1.85,0,0,0,32.32,14.54Z" transform="translate(-3.03 -3.14)" fill="#87cf80"/><path d="M19.62,24.34a6.68,6.68,0,0,0,2.9-4.9,6.57,6.57,0,0,0-5.6.7A6.68,6.68,0,0,0,14,25,6,6,0,0,0,19.62,24.34Z" transform="translate(-3.03 -3.14)" fill="#87cf80" opacity="0.84" style="isolation:isolate"/><path d="M22.62,19.54c-.2,0-.3-.1-.5-.1l-8,5.7v.1a6.43,6.43,0,0,0,8.5-5.7Z" transform="translate(-3.03 -3.14)" fill="#87cf80"/></svg>