<svg id="ae75888d-5826-4ac6-ae9a-acd63080da40" data-name="Layer 1" xmlns="http://www.w3.org/2000/svg" viewBox="0 0 30.12 28.76"><path d="M32.34,14.65,17.91,3.17,3.59,14.65a1.89,1.89,0,0,0-.31,2.54,1.89,1.89,0,0,0,2.54.31L17.91,7.74l12.2,9.76a2.13,2.13,0,0,0,1.12.4,1.82,1.82,0,0,0,1.11-3.25Z" transform="translate(-2.92 -3.17)" fill="#66a8eb"/><path d="M7.85,18.31V31.93H28.18V18.31L17.91,10.18Zm16.77,4.17h0a6.37,6.37,0,0,1-6.4,6.4,6.2,6.2,0,0,1-2.44-.51l1.42-1.93a4.59,4.59,0,0,0,4.68-1.63,4.27,4.27,0,0,0,.2-4.87l-1.83,2.54-2.74-2,1.83-2.54a4.29,4.29,0,0,0-4.58,1.73,4.48,4.48,0,0,0-.2,5l-1.32,1.83a6.65,6.65,0,0,1-1.32-4,6.38,6.38,0,0,1,6.4-6.41A6.29,6.29,0,0,1,24.62,22.48Z" transform="translate(-2.92 -3.17)" fill="#66a8eb"/></svg>