<svg id="a6a6f26d-d6ac-47c4-ab29-f340d1fd3594" data-name="Layer 1" xmlns="http://www.w3.org/2000/svg" viewBox="0 0 30.08 28.7"><path d="M16,26.7a1.38,1.38,0,0,1-.3-.4,2.84,2.84,0,0,1-.4-1.3v-.1a4.69,4.69,0,0,1,1.1-3.4c2.3-2.9,2.2-4.6,2.2-4.6.2,1,1.2,3.6,0,4.8a1.26,1.26,0,0,0-.4.7.53.53,0,0,0,.4.5,1.48,1.48,0,0,0,.9.1,1.25,1.25,0,0,0,.8-.8,2.77,2.77,0,0,0,.1-.9,7.89,7.89,0,0,0-.2-1.7,26.91,26.91,0,0,1,.9,3.2s.5,3.7-1.6,4.6a4.2,4.2,0,0,1-1.5.1h-.2a2.5,2.5,0,0,1-1.8-.8Z" transform="translate(-2.95 -2.91)" fill="#ce4222"/><path d="M7.83,18v13.6h20.3V18l-10.2-8.1Zm16.8,4.2h0a6.4,6.4,0,1,1-6.4-6.4A6.38,6.38,0,0,1,24.63,22.21Z" transform="translate(-2.95 -2.91)" fill="#ce4222"/><path d="M32.43,14.41,17.93,2.91,3.63,14.41a1.78,1.78,0,0,0,2.2,2.8l12.1-9.7,12.2,9.7a1.5,1.5,0,0,0,1.1.4,1.75,1.75,0,0,0,1.4-.7A1.84,1.84,0,0,0,32.43,14.41Z" transform="translate(-2.95 -2.91)" fill="#ce4222"/></svg>